<?xml version="1.0" encoding="utf-8"?>
<!-- Generator: Adobe Illustrator 25.2.1, SVG Export Plug-In . SVG Version: 6.00 Build 0)  -->
<svg version="1.1" id="Layer_1" xmlns="http://www.w3.org/2000/svg" xmlns:xlink="http://www.w3.org/1999/xlink" x="0px" y="0px"
	 viewBox="0 0 36 36" style="enable-background:new 0 0 36 36;" xml:space="preserve">
<style type="text/css">
	.st0{fill:#FFFFFF;}
	.st1{fill:#0033AD;}
</style>
<g>
	<g>
		<circle class="st0" cx="18" cy="18" r="18"/>
	</g>
</g>
<path class="st1" d="M17.685,6.057c0.568-0.3,1.254,0.386,0.953,0.953c-0.171,0.461-0.835,0.589-1.179,0.236
	C17.107,6.914,17.224,6.239,17.685,6.057z M11.589,6.721c0.343-0.139,0.782,0.171,0.75,0.546c0.032,0.407-0.461,0.707-0.814,0.514
	C11.053,7.599,11.107,6.838,11.589,6.721L11.589,6.721z M24.071,7.792c-0.536-0.064-0.622-0.911-0.107-1.082
	c0.407-0.193,0.771,0.171,0.825,0.557C24.713,7.589,24.445,7.889,24.071,7.792L24.071,7.792z M12.971,9.313
	c0.579-0.364,1.393,0.182,1.307,0.846c-0.032,0.675-0.921,1.071-1.436,0.611C12.36,10.406,12.436,9.581,12.971,9.313z M21.767,9.699
	c0.257-0.664,1.297-0.686,1.586-0.043c0.289,0.504-0.065,1.125-0.579,1.297C22.088,11.081,21.446,10.342,21.767,9.699L21.767,9.699z
	 M16.946,10.91c-0.01-0.568,0.514-0.996,1.05-1.029c0.354,0.075,0.75,0.225,0.9,0.589c0.289,0.504,0.032,1.189-0.482,1.414
	c-0.236,0.129-0.515,0.086-0.772,0.064C17.246,11.756,16.914,11.381,16.946,10.91z M7.882,11.746
	c0.525-0.321,1.232,0.268,1.04,0.836c-0.107,0.493-0.772,0.696-1.157,0.375C7.357,12.667,7.421,11.949,7.882,11.746z M27.349,11.746
	c0.45-0.343,1.179,0.053,1.125,0.611c0.032,0.514-0.611,0.9-1.05,0.632C26.942,12.774,26.899,12.024,27.349,11.746z M19.496,12.763
	c0.739-0.268,1.607,0.054,2.025,0.707c0.557,0.803,0.257,2.025-0.6,2.486c-0.889,0.546-2.186,0.086-2.518-0.911
	C18.039,14.156,18.585,13.042,19.496,12.763L19.496,12.763z M15.178,12.849c0.814-0.386,1.918-0.064,2.303,0.772
	c0.461,0.814,0.108,1.939-0.728,2.368c-0.825,0.471-2.003,0.118-2.4-0.761C13.914,14.381,14.31,13.245,15.178,12.849z M10.85,14.327
	c0.064-0.525,0.557-0.868,1.061-0.9c0.535,0.064,0.975,0.482,1.029,1.029c-0.032,0.535-0.45,1.071-1.029,1.06
	C11.289,15.581,10.732,14.948,10.85,14.327z M23.631,13.545c0.643-0.375,1.543,0.171,1.511,0.911
	c0.043,0.782-0.954,1.339-1.596,0.879C22.881,14.949,22.935,13.867,23.631,13.545z M13.421,16.32
	c0.761-0.204,1.618,0.15,1.993,0.846c0.407,0.696,0.236,1.671-0.386,2.186c-0.814,0.75-2.304,0.45-2.732-0.578
	C11.793,17.82,12.393,16.567,13.421,16.32z M21.617,16.31c0.739-0.214,1.596,0.075,1.993,0.739c0.525,0.761,0.268,1.907-0.504,2.4
	c-0.814,0.578-2.079,0.268-2.528-0.622C20.032,17.906,20.578,16.599,21.617,16.31L21.617,16.31z M8.557,17.188
	c0.654-0.247,1.382,0.471,1.114,1.125c-0.16,0.589-0.996,0.803-1.425,0.375C7.743,18.27,7.936,17.36,8.557,17.188z M26.267,18.12
	c-0.021-0.546,0.375-1.018,0.932-1.05c0.45,0.075,0.879,0.428,0.847,0.921c0.043,0.643-0.74,1.082-1.286,0.782
	C26.502,18.645,26.374,18.377,26.267,18.12z M5.343,17.499c0.396-0.171,0.879,0.171,0.793,0.611
	c-0.021,0.493-0.75,0.686-1.018,0.268C4.882,18.088,5.021,17.649,5.343,17.499L5.343,17.499z M30.124,17.488
	c0.279-0.193,0.718-0.054,0.825,0.268c0.182,0.354-0.15,0.836-0.557,0.782C29.845,18.592,29.663,17.735,30.124,17.488z
	 M15.553,19.867c1.039-0.268,2.143,0.589,2.153,1.661c0.064,1.071-1.029,2.025-2.089,1.779c-0.814-0.129-1.457-0.921-1.436-1.746
	C14.182,20.767,14.782,20.027,15.553,19.867L15.553,19.867z M19.646,19.867c1.05-0.289,2.197,0.589,2.175,1.671
	c0.053,1.06-1.007,1.982-2.047,1.768c-0.975-0.129-1.693-1.2-1.425-2.143C18.499,20.531,19.024,20.016,19.646,19.867L19.646,19.867z
	 M11.761,20.52c0.728-0.129,1.403,0.686,1.114,1.371c-0.215,0.739-1.286,0.932-1.757,0.332
	C10.561,21.656,10.968,20.595,11.761,20.52z M23.76,20.552c0.643-0.268,1.446,0.289,1.393,0.996
	c0.021,0.772-0.953,1.307-1.585,0.857C22.849,21.988,22.978,20.799,23.76,20.552z M27.124,23.917
	c-0.257-0.471,0.203-1.103,0.728-1.007c0.257,0,0.439,0.204,0.611,0.375c0.032,0.278,0.097,0.611-0.139,0.825
	C28.003,24.506,27.295,24.399,27.124,23.917L27.124,23.917z M7.882,23.038c0.493-0.321,1.2,0.161,1.082,0.729
	C8.911,24.27,8.268,24.56,7.85,24.281C7.4,24.024,7.411,23.274,7.882,23.038L7.882,23.038z M17.568,24.098
	c0.643-0.278,1.457,0.278,1.403,0.986c0.043,0.782-0.964,1.318-1.596,0.857C16.678,25.534,16.796,24.345,17.568,24.098z
	 M13.078,25.148c0.546-0.289,1.286,0.214,1.232,0.825c0.021,0.504-0.472,0.932-0.975,0.857c-0.407-0.01-0.675-0.375-0.814-0.729
	C12.543,25.716,12.693,25.287,13.078,25.148z M22.174,25.159c0.557-0.343,1.36,0.15,1.307,0.803c0.01,0.686-0.89,1.125-1.415,0.675
	C21.563,26.284,21.628,25.437,22.174,25.159L22.174,25.159z M23.76,29.059c-0.247-0.375,0.043-0.836,0.45-0.921
	c0.322,0.064,0.675,0.311,0.6,0.686C24.756,29.348,24.006,29.498,23.76,29.059z M11.203,28.737c0.097-0.3,0.343-0.6,0.696-0.525
	c0.515,0.032,0.664,0.814,0.214,1.05C11.707,29.541,11.246,29.166,11.203,28.737z M17.257,29.08c0.096-0.439,0.675-0.664,1.05-0.428
	c0.246,0.107,0.321,0.386,0.386,0.622l-0.097,0.375c-0.15,0.182-0.353,0.364-0.611,0.364C17.514,30.066,17.074,29.53,17.257,29.08
	L17.257,29.08z"/>
</svg>
